<svg xmlns="http://www.w3.org/2000/svg" viewBox="0 0 400 300" fill="none">
  <defs>
    <linearGradient id="e1" x1="0%" y1="0%" x2="100%" y2="100%">
      <stop offset="0%" style="stop-color:#1A5DAB"/>
      <stop offset="100%" style="stop-color:#2E7BD6"/>
    </linearGradient>
    <linearGradient id="e2" x1="0%" y1="0%" x2="100%" y2="100%">
      <stop offset="0%" style="stop-color:#F5B731"/>
      <stop offset="100%" style="stop-color:#FFD06A"/>
    </linearGradient>
  </defs>
  <circle cx="200" cy="150" r="130" fill="url(#e1)" opacity="0.05"/>
  <!-- Central hub -->
  <circle cx="200" cy="150" r="40" fill="url(#e1)" opacity="0.15"/>
  <text x="200" y="155" font-family="Arial,sans-serif" font-size="14" font-weight="bold" fill="#1A5DAB" text-anchor="middle" opacity="0.7">ERP</text>
  <!-- Connected modules -->
  <circle cx="100" cy="80" r="28" fill="white" stroke="#1A5DAB" stroke-width="2" opacity="0.8"/>
  <text x="100" y="75" font-family="Arial,sans-serif" font-size="8" fill="#1A5DAB" text-anchor="middle">Sales</text>
  <line x1="128" y1="95" x2="165" y2="125" stroke="#1A5DAB" stroke-width="1.5" opacity="0.3"/>
  <circle cx="300" cy="80" r="28" fill="white" stroke="#F5B731" stroke-width="2" opacity="0.8"/>
  <text x="300" y="75" font-family="Arial,sans-serif" font-size="8" fill="#0D1B3E" text-anchor="middle">HR</text>
  <line x1="272" y1="95" x2="235" y2="125" stroke="#F5B731" stroke-width="1.5" opacity="0.3"/>
  <circle cx="80" cy="200" r="28" fill="white" stroke="#1A5DAB" stroke-width="2" opacity="0.8"/>
  <text x="80" y="195" font-family="Arial,sans-serif" font-size="7" fill="#1A5DAB" text-anchor="middle">Inventory</text>
  <line x1="108" y1="190" x2="162" y2="165" stroke="#1A5DAB" stroke-width="1.5" opacity="0.3"/>
  <circle cx="320" cy="200" r="28" fill="white" stroke="#F5B731" stroke-width="2" opacity="0.8"/>
  <text x="320" y="195" font-family="Arial,sans-serif" font-size="6" fill="#0D1B3E" text-anchor="middle">Accounting</text>
  <line x1="292" y1="190" x2="238" y2="165" stroke="#F5B731" stroke-width="1.5" opacity="0.3"/>
  <circle cx="150" cy="260" r="28" fill="white" stroke="#1A5DAB" stroke-width="2" opacity="0.8"/>
  <text x="150" y="255" font-family="Arial,sans-serif" font-size="6" fill="#1A5DAB" text-anchor="middle">Purchase</text>
  <line x1="165" y1="235" x2="190" y2="188" stroke="#1A5DAB" stroke-width="1.5" opacity="0.3"/>
  <circle cx="250" cy="260" r="28" fill="white" stroke="#F5B731" stroke-width="2" opacity="0.8"/>
  <text x="250" y="255" font-family="Arial,sans-serif" font-size="8" fill="#0D1B3E" text-anchor="middle">CRM</text>
  <line x1="235" y1="235" x2="210" y2="188" stroke="#F5B731" stroke-width="1.5" opacity="0.3"/>
</svg>
