<svg xmlns="http://www.w3.org/2000/svg" viewBox="0 0 400 300" fill="none">
  <defs>
    <linearGradient id="w1" x1="0%" y1="0%" x2="100%" y2="100%">
      <stop offset="0%" style="stop-color:#1A5DAB"/>
      <stop offset="100%" style="stop-color:#2E7BD6"/>
    </linearGradient>
    <linearGradient id="w2" x1="0%" y1="0%" x2="100%" y2="100%">
      <stop offset="0%" style="stop-color:#F5B731"/>
      <stop offset="100%" style="stop-color:#FFD06A"/>
    </linearGradient>
  </defs>
  <circle cx="200" cy="150" r="130" fill="url(#w1)" opacity="0.04"/>
  <!-- Browser window -->
  <rect x="50" y="40" width="300" height="200" rx="10" fill="#0D1B3E"/>
  <rect x="50" y="40" width="300" height="30" rx="10" fill="#152952"/>
  <circle cx="72" cy="55" r="5" fill="#EF4444" opacity="0.6"/>
  <circle cx="90" cy="55" r="5" fill="#F5B731" opacity="0.6"/>
  <circle cx="108" cy="55" r="5" fill="#4ADE80" opacity="0.6"/>
  <rect x="130" y="50" width="160" height="10" rx="5" fill="#1a2744"/>
  <!-- Website content -->
  <rect x="65" y="82" width="270" height="20" rx="4" fill="url(#w1)" opacity="0.15"/>
  <rect x="65" y="112" width="120" height="80" rx="6" fill="url(#w1)" opacity="0.1"/>
  <rect x="195" y="112" width="140" height="10" rx="3" fill="white" opacity="0.15"/>
  <rect x="195" y="128" width="120" height="8" rx="3" fill="white" opacity="0.1"/>
  <rect x="195" y="142" width="100" height="8" rx="3" fill="white" opacity="0.08"/>
  <rect x="195" y="165" width="70" height="22" rx="11" fill="url(#w2)" opacity="0.5"/>
  <!-- Responsive devices -->
  <rect x="280" y="210" width="100" height="70" rx="6" fill="#0D1B3E" opacity="0.8"/>
  <rect x="286" y="218" width="88" height="52" rx="3" fill="#1a2744"/>
  <rect x="292" y="225" width="76" height="6" rx="3" fill="url(#w1)" opacity="0.2"/>
  <rect x="292" y="236" width="50" height="4" rx="2" fill="white" opacity="0.1"/>
  <rect x="292" y="244" width="40" height="4" rx="2" fill="white" opacity="0.08"/>
  <!-- Phone -->
  <rect x="40" y="220" width="50" height="80" rx="8" fill="#0D1B3E" opacity="0.8"/>
  <rect x="46" y="230" width="38" height="58" rx="3" fill="#1a2744"/>
  <rect x="52" y="238" width="26" height="5" rx="2" fill="url(#w2)" opacity="0.3"/>
  <rect x="52" y="248" width="22" height="4" rx="2" fill="white" opacity="0.1"/>
  <!-- Connection arrows -->
  <path d="M200 240 L120 260" stroke="#F5B731" stroke-width="1.5" opacity="0.3" stroke-dasharray="4 3"/>
  <path d="M200 240 L310 245" stroke="#1A5DAB" stroke-width="1.5" opacity="0.3" stroke-dasharray="4 3"/>
</svg>
